# xmcd
#
# Track frame offsets: 
#        150
#        29900
#        44923
#        58815
#        71407
#        82296
#        97298
#        112602
#        123784
#        140695
#
# Disc length: 2036 seconds
#
# Revision: 0
# Processed by: cddbd v1.5.2PL0 Copyright (c) Steve Scherf et al.
# Submitted via: ExactAudioCopy v0.99pb4
#
DISCID=9b07f20a
DTITLE=King Floyd - Think About It
DYEAR=1973
DGENRE=Soul
TTITLE0=My Girl
TTITLE1=Here It Is
TTITLE2=Do Your Feeling
TTITLE3=It's Not What You Say
TTITLE4=Woman Don't Go Astray
TTITLE5=Think About It
TTITLE6=Thank You
TTITLE7=Hard To Handle
TTITLE8=You've Got Me
TTITLE9=Everybody Needs Somebody
EXTD=
EXTT0=
EXTT1=
EXTT2=
EXTT3=
EXTT4=
EXTT5=
EXTT6=
EXTT7=
EXTT8=
EXTT9=
PLAYORDER=
